<?xml version="1.0" encoding="iso-8859-1"?>
<!-- Generator: Adobe Illustrator 19.0.0, SVG Export Plug-In . SVG Version: 6.00 Build 0)  -->
<svg xmlns="http://www.w3.org/2000/svg" xmlns:xlink="http://www.w3.org/1999/xlink" version="1.1" id="Capa_1" x="0px" y="0px" viewBox="0 0 480 480" style="enable-background:new 0 0 480 480;" xml:space="preserve" width="512px" height="512px">
<g>
	<g>
		<path d="M419.68,130.72C379.872,59.968,304.864,16,224,16C100.48,16,0,116.48,0,240c0,123.488,100.48,224,224,224    c42.208,0,83.456-11.904,119.232-34.496c7.456-4.672,9.696-14.592,4.992-22.048c-4.672-7.456-14.56-9.696-22.048-4.992    C295.488,421.792,260.192,432,224,432c-105.888,0-192-86.112-192-192S118.112,48,224,48c69.344,0,133.664,37.696,167.808,98.432    c4.352,7.712,14.208,10.368,21.792,6.08C421.312,148.16,424.032,138.432,419.68,130.72z" fill="#FFFFFF"/>
	</g>
</g>
<g>
	<g>
		<path d="M447.936,275.008c0.032-1.024,0.064-2.016,0.064-3.008c0-52.928-43.072-96-96-96c-40.96,0-77.344,26.656-90.656,64.224    C225.472,236.992,192,266.912,192,304c0,35.296,28.704,64,64,64h176c26.464,0,48-21.536,48-48    C480,299.392,466.976,281.792,447.936,275.008z M432,336H256c-17.664,0-32-14.336-32-32s14.336-32,32-32    c4.192,0,7.744,0.64,10.624,1.888c4.512,1.92,9.728,1.696,14.048-0.672c4.32-2.368,7.328-6.624,8.096-11.488    C293.664,231.104,320.832,208,352,208c35.296,0,64,28.704,64,64c0,4.448-0.544,8.832-1.312,13.024    c-0.192,0.96-0.288,2.208-0.288,3.2v0.032c0,0.032,0,0.032,0,0.064c0,11.008,12.512,19.712,22.016,16.32    C443.104,306.528,448,312.704,448,320C448,328.8,440.8,336,432,336z" fill="#FFFFFF"/>
	</g>
</g>
<g>
</g>
<g>
</g>
<g>
</g>
<g>
</g>
<g>
</g>
<g>
</g>
<g>
</g>
<g>
</g>
<g>
</g>
<g>
</g>
<g>
</g>
<g>
</g>
<g>
</g>
<g>
</g>
<g>
</g>
</svg>
