<?xml version="1.0" encoding="iso-8859-1"?>
<!-- Generator: Adobe Illustrator 19.0.0, SVG Export Plug-In . SVG Version: 6.00 Build 0)  -->
<svg xmlns="http://www.w3.org/2000/svg" xmlns:xlink="http://www.w3.org/1999/xlink" version="1.1" id="Capa_1" x="0px" y="0px" viewBox="0 0 512 512" style="enable-background:new 0 0 512 512;" xml:space="preserve" width="512px" height="512px">
<g>
	<g>
		<path d="M412.864,144.032C397.952,70.016,333.088,16,256,16c-64.032,0-121.504,38.112-146.688,96.032    C48.8,113.472,0,163.136,0,224c0,17.6,3.904,34.304,11.616,49.728c3.936,7.872,13.536,11.104,21.44,7.136    c7.904-3.968,11.136-13.568,7.168-21.472C34.752,248.48,32,236.576,32,224c0-44.096,35.904-80,80-80c1.28,0,3.392,0,4.128,0.16    c8.096,2.08,16.288-2.432,19.008-10.272C152.928,82.528,201.504,48,256,48c66.016,0,120.8,49.536,127.456,115.232    c0.416,4.448,2.72,8.512,6.304,11.2c3.584,2.656,8.16,3.68,12.544,2.912c4.192-0.8,8.992-1.344,13.696-1.344    c35.296,0,64,28.704,64,64c0,35.296-28.704,64-64,64H240c-8.832,0-16,7.168-16,16c0,8.832,7.168,16,16,16h176    c52.928,0,96-43.072,96-96C512,186.016,468.8,142.88,412.864,144.032z" fill="#FFFFFF"/>
	</g>
</g>
<g>
	<g>
		<path d="M189.248,311.04c-2.976-4.416-7.936-7.04-13.248-7.04h-48v-80c0-7.68-5.44-14.272-12.96-15.744    c-7.456-1.376-15.04,2.624-17.888,9.792l-64,160c-1.984,4.928-1.376,10.496,1.6,14.912C37.728,397.376,42.688,400,48,400h48v80    c0,7.648,5.44,14.24,12.96,15.712c1.024,0.192,2.016,0.288,3.04,0.288c6.432,0,12.384-3.904,14.848-10.048l64-160    C192.832,321.024,192.224,315.456,189.248,311.04z M128,396.896V384c0-8.832-7.168-16-16-16H71.616L96,307.104V320    c0,8.832,7.168,16,16,16h40.384L128,396.896z" fill="#FFFFFF"/>
	</g>
</g>
<g>
	<g>
		<path d="M432,368c-8.832,0-16,7.168-16,16v96c0,8.832,7.168,16,16,16c8.832,0,16-7.168,16-16v-96C448,375.168,440.832,368,432,368    z" fill="#FFFFFF"/>
	</g>
</g>
<g>
	<g>
		<path d="M481.568,442.144l-83.136-48c-7.616-4.384-17.44-1.792-21.856,5.856c-4.416,7.68-1.792,17.44,5.856,21.856l83.136,48    c2.528,1.472,5.28,2.144,8,2.144c5.504,0,10.912-2.88,13.856-8C491.84,456.32,489.216,446.56,481.568,442.144z" fill="#FFFFFF"/>
	</g>
</g>
<g>
	<g>
		<path d="M487.424,400c-4.384-7.712-14.208-10.304-21.856-5.856l-83.136,48c-7.68,4.416-10.304,14.208-5.856,21.856    c2.944,5.12,8.352,8,13.856,8c2.72,0,5.472-0.672,8-2.144l83.136-48C489.248,417.44,491.872,407.648,487.424,400z" fill="#FFFFFF"/>
	</g>
</g>
<g>
	<g>
		<path d="M272,368c-8.832,0-16,7.168-16,16v96c0,8.832,7.168,16,16,16c8.832,0,16-7.168,16-16v-96C288,375.168,280.832,368,272,368    z" fill="#FFFFFF"/>
	</g>
</g>
<g>
	<g>
		<path d="M321.568,442.144l-83.136-48c-7.648-4.48-17.44-1.792-21.856,5.856c-4.416,7.648-1.792,17.44,5.856,21.856l83.136,48    c2.528,1.472,5.28,2.144,8,2.144c5.504,0,10.912-2.88,13.856-8C331.84,456.32,329.216,446.56,321.568,442.144z" fill="#FFFFFF"/>
	</g>
</g>
<g>
	<g>
		<path d="M327.424,400c-4.416-7.712-14.24-10.304-21.856-5.856l-83.136,48c-7.648,4.416-10.272,14.208-5.856,21.856    c2.976,5.12,8.352,8,13.888,8c2.72,0,5.472-0.672,7.968-2.144l83.136-48C329.248,417.44,331.872,407.648,327.424,400z" fill="#FFFFFF"/>
	</g>
</g>
<g>
</g>
<g>
</g>
<g>
</g>
<g>
</g>
<g>
</g>
<g>
</g>
<g>
</g>
<g>
</g>
<g>
</g>
<g>
</g>
<g>
</g>
<g>
</g>
<g>
</g>
<g>
</g>
<g>
</g>
</svg>
