<?xml version="1.0" encoding="iso-8859-1"?>
<!-- Generator: Adobe Illustrator 19.0.0, SVG Export Plug-In . SVG Version: 6.00 Build 0)  -->
<svg xmlns="http://www.w3.org/2000/svg" xmlns:xlink="http://www.w3.org/1999/xlink" version="1.1" id="Capa_1" x="0px" y="0px" viewBox="0 0 512 512" style="enable-background:new 0 0 512 512;" xml:space="preserve" width="512px" height="512px">
<g>
	<g>
		<path d="M176,384H16c-8.832,0-16,7.168-16,16c0,8.832,7.168,16,16,16h160c8.832,0,16,7.2,16,16s-7.168,16-16,16    c-8.832,0-16,7.168-16,16c0,8.832,7.168,16,16,16c26.464,0,48-21.536,48-48S202.464,384,176,384z" fill="#FFFFFF"/>
	</g>
</g>
<g>
	<g>
		<path d="M240,256c-8.832,0-16,7.168-16,16c0,8.832,7.168,16,16,16c8.832,0,16,7.2,16,16s-7.168,16-16,16H16    c-8.832,0-16,7.168-16,16c0,8.832,7.168,16,16,16h224c26.464,0,48-21.536,48-48S266.464,256,240,256z" fill="#FFFFFF"/>
	</g>
</g>
<g>
	<g>
		<path d="M412.704,160.064c-7.872-39.648-30.912-75.232-64.544-98.848C321.344,42.08,289.504,32,256,32    c-64.032,0-121.504,38.112-146.688,96.032C48.8,129.472,0,179.136,0,240c0,13.344,2.304,26.048,6.816,37.76    c3.2,8.256,12.512,12.32,20.704,9.12c8.256-3.168,12.352-12.448,9.152-20.672C33.568,258.208,32,249.376,32,240    c0-44.096,35.904-80,80-80c1.28,0,3.392,0,4.128,0.16c8.096,2.08,16.288-2.432,19.008-10.272C152.928,98.528,201.504,64,256,64    c26.784,0,52.256,8.032,73.664,23.328c29.632,20.864,49.024,53.152,53.696,90.272c0,4.768,2.144,9.248,5.792,12.32    c3.648,3.04,8.48,4.224,13.152,3.424c4.192-0.8,8.992-1.344,13.696-1.344c35.296,0,64,28.704,64,64c0,35.296-28.704,64-64,64h-80    c-8.832,0-16,7.168-16,16c0,8.832,7.168,16,16,16h80c52.928,0,96-43.072,96-96C512,201.984,468.48,158.176,412.704,160.064z" fill="#FFFFFF"/>
	</g>
</g>
<g>
	<g>
		<path d="M416,0c-42.72,0-80.768,28.704-92.512,69.856c-2.432,8.48,2.496,17.344,10.976,19.776    c8.544,2.304,17.344-2.528,19.776-11.008C362.08,51.168,387.488,32,416,32c35.296,0,64,28.704,64,64s-28.704,64-64,64    c-4.8,0-9.408-0.512-13.6-1.504c-8.64-1.984-17.248,3.328-19.232,11.904c-2.048,8.608,3.264,17.248,11.904,19.264    C401.664,191.2,408.704,192,416,192c52.928,0,96-43.072,96-96S468.928,0,416,0z" fill="#FFFFFF"/>
	</g>
</g>
<g>
	<g>
		<path d="M368,384c-8.832,0-16,7.168-16,16v96c0,8.832,7.168,16,16,16c8.832,0,16-7.168,16-16v-96C384,391.168,376.832,384,368,384    z" fill="#FFFFFF"/>
	</g>
</g>
<g>
	<g>
		<path d="M417.6,458.144l-83.136-48c-7.648-4.384-17.44-1.792-21.856,5.856c-4.448,7.648-1.824,17.44,5.824,21.856l83.136,48    c2.528,1.472,5.28,2.144,8,2.144c5.504,0,10.912-2.88,13.888-8C427.872,472.32,425.248,462.56,417.6,458.144z" fill="#FFFFFF"/>
	</g>
</g>
<g>
	<g>
		<path d="M423.424,416c-4.416-7.712-14.208-10.304-21.856-5.856l-83.136,48c-7.68,4.416-10.304,14.208-5.856,21.856    c2.944,5.12,8.352,8,13.856,8c2.72,0,5.472-0.672,8-2.144l83.136-48C425.248,433.44,427.872,423.648,423.424,416z" fill="#FFFFFF"/>
	</g>
</g>
<g>
</g>
<g>
</g>
<g>
</g>
<g>
</g>
<g>
</g>
<g>
</g>
<g>
</g>
<g>
</g>
<g>
</g>
<g>
</g>
<g>
</g>
<g>
</g>
<g>
</g>
<g>
</g>
<g>
</g>
</svg>
