<?xml version="1.0" encoding="iso-8859-1"?>
<!-- Generator: Adobe Illustrator 19.0.0, SVG Export Plug-In . SVG Version: 6.00 Build 0)  -->
<svg xmlns="http://www.w3.org/2000/svg" xmlns:xlink="http://www.w3.org/1999/xlink" version="1.1" id="Capa_1" x="0px" y="0px" viewBox="0 0 512 512" style="enable-background:new 0 0 512 512;" xml:space="preserve" width="512px" height="512px">
<g>
	<g>
		<path d="M412.864,176.032C397.952,102.016,333.088,48,256,48c-64.032,0-121.504,38.112-146.688,96.032    C48.8,145.472,0,195.136,0,256c0,61.76,50.24,112,112,112h304c52.928,0,96-43.072,96-96C512,218.016,468.8,174.88,412.864,176.032    z M416,336H112c-44.096,0-80-35.872-80-80c0-44.096,35.904-80,80-80c1.28,0,3.392,0,4.128,0.16    c8.096,2.08,16.288-2.432,19.008-10.272C152.928,114.528,201.504,80,256,80c66.016,0,120.8,49.536,127.456,115.232    c0.416,4.448,2.72,8.512,6.304,11.2c3.584,2.656,8.16,3.68,12.544,2.912c4.192-0.8,8.992-1.344,13.696-1.344    c35.296,0,64,28.704,64,64C480,307.296,451.296,336,416,336z" fill="#FFFFFF"/>
	</g>
</g>
<g>
	<g>
		<path d="M416,16c-42.72,0-80.768,28.704-92.512,69.856c-2.432,8.48,2.496,17.344,10.976,19.776    c8.544,2.304,17.344-2.528,19.776-11.008C362.08,67.168,387.488,48,416,48c35.296,0,64,28.704,64,64s-28.704,64-64,64    c-4.8,0-9.408-0.512-13.6-1.504c-8.64-1.984-17.248,3.328-19.232,11.904c-2.048,8.608,3.264,17.248,11.904,19.264    C401.664,207.2,408.704,208,416,208c52.928,0,96-43.072,96-96S468.928,16,416,16z" fill="#FFFFFF"/>
	</g>
</g>
<g>
	<g>
		<path d="M144,400c-26.464,0-48,21.536-48,48s21.536,48,48,48s48-21.536,48-48S170.464,400,144,400z M144,464    c-8.832,0-16-7.2-16-16s7.168-16,16-16c8.832,0,16,7.2,16,16S152.832,464,144,464z" fill="#FFFFFF"/>
	</g>
</g>
<g>
	<g>
		<path d="M368,400c-26.464,0-48,21.536-48,48s21.536,48,48,48s48-21.536,48-48S394.464,400,368,400z M368,464c-8.8,0-16-7.2-16-16    s7.2-16,16-16s16,7.2,16,16S376.8,464,368,464z" fill="#FFFFFF"/>
	</g>
</g>
<g>
</g>
<g>
</g>
<g>
</g>
<g>
</g>
<g>
</g>
<g>
</g>
<g>
</g>
<g>
</g>
<g>
</g>
<g>
</g>
<g>
</g>
<g>
</g>
<g>
</g>
<g>
</g>
<g>
</g>
</svg>
