<?xml version="1.0" encoding="iso-8859-1"?>
<!-- Generator: Adobe Illustrator 19.0.0, SVG Export Plug-In . SVG Version: 6.00 Build 0)  -->
<svg xmlns="http://www.w3.org/2000/svg" xmlns:xlink="http://www.w3.org/1999/xlink" version="1.1" id="Capa_1" x="0px" y="0px" viewBox="0 0 480 480" style="enable-background:new 0 0 480 480;" xml:space="preserve" width="512px" height="512px">
<g>
	<g>
		<path d="M331.872,208.096C317.664,152.288,267.008,112,208,112c-45.6,0-87.968,24.8-110.752,64C44.608,174.272,0,218.656,0,272    c0,52.928,43.072,96,96,96h240c44.128,0,80-35.872,80-80C416,242.496,377.632,205.984,331.872,208.096z M336,336H96    c-35.296,0-64-28.704-64-64c0-35.296,28.704-64,64-64c3.008,0,6.048,0.288,9.056,0.576c6.784,0.608,13.12-3.04,15.968-9.12    C136.896,165.76,171.04,144,208,144c48.416,0,89.312,36.192,95.168,84.16c0.544,4.672,3.136,8.864,7.04,11.424    c3.936,2.624,8.832,3.36,13.312,2.016c3.616-1.056,7.808-1.6,12.48-1.6c26.464,0,48,21.536,48,48S362.464,336,336,336z" fill="#FFFFFF"/>
	</g>
</g>
<g>
	<g>
		<path d="M256,16c-80.896,0-155.904,43.968-195.712,114.688c-4.352,7.712-1.632,17.472,6.08,21.792    c7.712,4.352,17.44,1.6,21.792-6.08C122.336,85.696,186.656,48,256,48c105.888,0,192,86.112,192,192s-86.112,192-192,192    c-36.16,0-71.52-10.208-102.208-29.504c-7.456-4.736-17.344-2.432-22.048,4.992c-4.736,7.456-2.464,17.376,4.992,22.048    C172.544,452.096,213.792,464,256,464c123.488,0,224-100.512,224-224C480,116.48,379.488,16,256,16z" fill="#FFFFFF"/>
	</g>
</g>
<g>
</g>
<g>
</g>
<g>
</g>
<g>
</g>
<g>
</g>
<g>
</g>
<g>
</g>
<g>
</g>
<g>
</g>
<g>
</g>
<g>
</g>
<g>
</g>
<g>
</g>
<g>
</g>
<g>
</g>
</svg>
