<?xml version="1.0" encoding="iso-8859-1"?>
<!-- Generator: Adobe Illustrator 19.0.0, SVG Export Plug-In . SVG Version: 6.00 Build 0)  -->
<svg xmlns="http://www.w3.org/2000/svg" xmlns:xlink="http://www.w3.org/1999/xlink" version="1.1" id="Capa_1" x="0px" y="0px" viewBox="0 0 512 512" style="enable-background:new 0 0 512 512;" xml:space="preserve" width="512px" height="512px">
<g>
	<g>
		<path d="M412.864,160.032C397.952,86.016,333.088,32,256,32c-64.032,0-121.504,38.112-146.688,96.032    C48.8,129.472,0,179.136,0,240c0,61.76,50.24,112,112,112h304c52.928,0,96-43.072,96-96C512,202.016,468.8,158.88,412.864,160.032    z M416,320H112c-44.096,0-80-35.872-80-80c0-44.096,35.904-80,80-80c1.28,0,3.392,0,4.128,0.16    c8.096,2.08,16.288-2.432,19.008-10.272C152.928,98.528,201.504,64,256,64c66.016,0,120.8,49.536,127.456,115.232    c0.416,4.448,2.72,8.512,6.304,11.2c3.584,2.656,8.16,3.68,12.544,2.912c4.192-0.8,8.992-1.344,13.696-1.344    c35.296,0,64,28.704,64,64C480,291.296,451.296,320,416,320z" fill="#FFFFFF"/>
	</g>
</g>
<g>
	<g>
		<path d="M416,0c-42.72,0-80.768,28.704-92.512,69.856c-2.432,8.48,2.496,17.344,10.976,19.776    c8.544,2.304,17.344-2.528,19.776-11.008C362.08,51.168,387.488,32,416,32c35.296,0,64,28.704,64,64s-28.704,64-64,64    c-4.8,0-9.408-0.512-13.6-1.504c-8.64-1.984-17.248,3.328-19.232,11.904c-2.048,8.608,3.264,17.248,11.904,19.264    C401.664,191.2,408.704,192,416,192c52.928,0,96-43.072,96-96S468.928,0,416,0z" fill="#FFFFFF"/>
	</g>
</g>
<g>
	<g>
		<path d="M269.152,390.912c-5.952-8.64-20.32-8.64-26.336,0C232.352,406.048,208,443.552,208,464c0,26.464,21.536,48,48,48    s48-21.536,48-48C304,443.552,279.616,406.048,269.152,390.912z M256,480c-8.832,0-16-7.2-16-15.968    c0.128-4.896,6.784-18.848,16-34.368c9.216,15.52,15.84,29.44,16,34.336C272,472.8,264.8,480,256,480z" fill="#FFFFFF"/>
	</g>
</g>
<g>
	<g>
		<path d="M112,384c-8.832,0-16,7.168-16,16v96c0,8.832,7.168,16,16,16c8.832,0,16-7.168,16-16v-96C128,391.168,120.832,384,112,384    z" fill="#FFFFFF"/>
	</g>
</g>
<g>
	<g>
		<path d="M161.568,458.144l-83.136-48c-7.648-4.48-17.44-1.792-21.856,5.856s-1.792,17.44,5.824,21.856l83.136,48    c2.528,1.472,5.28,2.144,8,2.144c5.536,0,10.912-2.88,13.888-8C171.84,472.352,169.216,462.56,161.568,458.144z" fill="#FFFFFF"/>
	</g>
</g>
<g>
	<g>
		<path d="M167.424,416c-4.448-7.648-14.24-10.336-21.856-5.856l-83.136,48C54.784,462.56,52.16,472.352,56.576,480    c2.976,5.12,8.352,8,13.888,8c2.72,0,5.472-0.672,7.968-2.144l83.136-48C169.216,433.44,171.84,423.648,167.424,416z" fill="#FFFFFF"/>
	</g>
</g>
<g>
	<g>
		<path d="M400,384c-8.832,0-16,7.168-16,16v96c0,8.832,7.168,16,16,16c8.832,0,16-7.168,16-16v-96C416,391.168,408.832,384,400,384    z" fill="#FFFFFF"/>
	</g>
</g>
<g>
	<g>
		<path d="M449.568,458.144l-83.136-48c-7.648-4.384-17.44-1.792-21.856,5.856c-4.416,7.68-1.792,17.44,5.856,21.856l83.136,48    c2.528,1.472,5.28,2.144,8,2.144c5.504,0,10.912-2.88,13.856-8C459.84,472.32,457.216,462.56,449.568,458.144z" fill="#FFFFFF"/>
	</g>
</g>
<g>
	<g>
		<path d="M455.424,416c-4.416-7.712-14.24-10.304-21.856-5.856l-83.136,48c-7.68,4.416-10.304,14.208-5.856,21.856    c2.944,5.12,8.352,8,13.856,8c2.72,0,5.472-0.672,8-2.144l83.136-48C457.248,433.44,459.872,423.648,455.424,416z" fill="#FFFFFF"/>
	</g>
</g>
<g>
</g>
<g>
</g>
<g>
</g>
<g>
</g>
<g>
</g>
<g>
</g>
<g>
</g>
<g>
</g>
<g>
</g>
<g>
</g>
<g>
</g>
<g>
</g>
<g>
</g>
<g>
</g>
<g>
</g>
</svg>
