<?xml version="1.0" encoding="iso-8859-1"?>
<!-- Generator: Adobe Illustrator 19.0.0, SVG Export Plug-In . SVG Version: 6.00 Build 0)  -->
<svg xmlns="http://www.w3.org/2000/svg" xmlns:xlink="http://www.w3.org/1999/xlink" version="1.1" id="Capa_1" x="0px" y="0px" viewBox="0 0 512 512" style="enable-background:new 0 0 512 512;" xml:space="preserve" width="512px" height="512px">
<g>
	<g>
		<path d="M412.864,160.032C397.952,86.016,333.088,32,256,32c-64.032,0-121.504,38.112-146.688,96.032    C48.8,129.472,0,179.136,0,240c0,61.76,50.24,112,112,112h32c8.832,0,16-7.168,16-16c0-8.832-7.168-16-16-16h-32    c-44.096,0-80-35.872-80-80c0-44.096,35.904-80,80-80c1.28,0,3.392,0,4.128,0.16c8.096,2.08,16.288-2.432,19.008-10.272    C152.928,98.528,201.504,64,256,64c66.016,0,120.8,49.536,127.456,115.232c0.416,4.448,2.72,8.512,6.304,11.2    c3.584,2.656,8.16,3.68,12.544,2.912c4.192-0.8,8.992-1.344,13.696-1.344c35.296,0,64,28.704,64,64c0,35.296-28.704,64-64,64h-48    c-8.832,0-16,7.168-16,16c0,8.832,7.168,16,16,16h48c52.928,0,96-43.072,96-96C512,202.016,468.8,158.88,412.864,160.032z" fill="#FFFFFF"/>
	</g>
</g>
<g>
	<g>
		<path d="M317.248,327.04c-2.976-4.416-7.936-7.04-13.248-7.04h-48v-80c0-7.68-5.44-14.272-12.96-15.744    c-7.424-1.376-15.04,2.624-17.888,9.792l-64,160c-1.984,4.928-1.376,10.496,1.6,14.912c2.976,4.416,7.936,7.04,13.248,7.04h48v80    c0,7.648,5.44,14.24,12.96,15.712c1.024,0.192,2.016,0.288,3.04,0.288c6.432,0,12.384-3.904,14.848-10.048l64-160    C320.8,337.024,320.224,331.456,317.248,327.04z M256,412.896V400c0-8.832-7.168-16-16-16h-40.384L224,323.104V336    c0,8.832,7.168,16,16,16h40.384L256,412.896z" fill="#FFFFFF"/>
	</g>
</g>
<g>
	<g>
		<path d="M416,0c-42.72,0-80.768,28.704-92.512,69.856c-2.432,8.48,2.496,17.344,10.976,19.776    c8.544,2.304,17.344-2.528,19.776-11.008C362.08,51.168,387.488,32,416,32c35.296,0,64,28.704,64,64s-28.704,64-64,64    c-4.8,0-9.408-0.512-13.6-1.504c-8.64-1.984-17.248,3.328-19.232,11.904c-2.048,8.608,3.264,17.248,11.904,19.264    C401.664,191.2,408.704,192,416,192c52.928,0,96-43.072,96-96S468.928,0,416,0z" fill="#FFFFFF"/>
	</g>
</g>
<g>
</g>
<g>
</g>
<g>
</g>
<g>
</g>
<g>
</g>
<g>
</g>
<g>
</g>
<g>
</g>
<g>
</g>
<g>
</g>
<g>
</g>
<g>
</g>
<g>
</g>
<g>
</g>
<g>
</g>
</svg>
