<?xml version="1.0" encoding="iso-8859-1"?>
<!-- Generator: Adobe Illustrator 19.0.0, SVG Export Plug-In . SVG Version: 6.00 Build 0)  -->
<svg xmlns="http://www.w3.org/2000/svg" xmlns:xlink="http://www.w3.org/1999/xlink" version="1.1" id="Capa_1" x="0px" y="0px" viewBox="0 0 480 480" style="enable-background:new 0 0 480 480;" xml:space="preserve" width="512px" height="512px">
<g>
	<g>
		<path d="M459.136,347.328c-4.288-5.248-11.52-7.232-17.824-4.96C423.552,348.736,404.288,352,384,352    c-43.232,0-84.448-15.584-116.032-43.904c-6.528-5.92-16.64-5.376-22.592,1.216c-5.888,6.592-5.344,16.704,1.248,22.592    C284.096,365.504,332.896,384,384,384c7.936,0,15.744-0.448,23.392-1.248C368.608,424.192,314.432,448,256,448    c-114.688,0-208-93.312-208-208c0-106.848,80.96-195.136,184.768-206.688C208.8,58.656,191.456,89.76,182.592,124    c-2.208,8.544,2.912,17.28,11.456,19.488c8.544,2.272,17.312-2.944,19.52-11.488c10.72-41.408,36.128-77.472,71.552-101.472    c5.472-3.712,8.096-10.4,6.624-16.832C290.272,7.264,284.96,2.4,278.432,1.44C270.944,0.352,263.488,0,256,0    C123.648,0,16,107.648,16,240s107.648,240,240,240c84,0,160.416-42.688,204.352-114.208    C463.904,360,463.424,352.608,459.136,347.328z" fill="#FFFFFF"/>
	</g>
</g>
<g>
	<g>
		<path d="M431.936,195.008c0.032-1.024,0.064-2.016,0.064-3.008c0-52.928-43.072-96-96-96c-40.928,0-77.344,26.656-90.656,64.192    c-1.728-0.128-3.52-0.192-5.344-0.192c-35.296,0-64,28.704-64,64c0,35.296,28.704,64,64,64h176c26.464,0,48-21.536,48-48    C464,219.392,450.976,201.792,431.936,195.008z M416,256H240c-17.632,0-32-14.336-32-32c0-17.632,14.368-32,32-32    c4.192,0,7.712,0.64,10.496,1.856c4.576,2.016,9.76,1.76,14.112-0.608c4.32-2.368,7.36-6.624,8.128-11.52    C277.664,151.104,304.832,128,336,128c35.296,0,64,28.704,64,64c0,4.416-0.544,8.864-1.312,13.088    c-0.192,0.928-0.288,2.176-0.288,3.168c0,0.032,0,0.032,0,0.032v0.032c0.032,11.008,12.512,19.712,22.016,16.32    C427.104,226.528,432,232.704,432,240C432,248.8,424.8,256,416,256z" fill="#FFFFFF"/>
	</g>
</g>
<g>
</g>
<g>
</g>
<g>
</g>
<g>
</g>
<g>
</g>
<g>
</g>
<g>
</g>
<g>
</g>
<g>
</g>
<g>
</g>
<g>
</g>
<g>
</g>
<g>
</g>
<g>
</g>
<g>
</g>
</svg>
