<?xml version="1.0" encoding="iso-8859-1"?>
<!-- Generator: Adobe Illustrator 19.0.0, SVG Export Plug-In . SVG Version: 6.00 Build 0)  -->
<svg xmlns="http://www.w3.org/2000/svg" xmlns:xlink="http://www.w3.org/1999/xlink" version="1.1" id="Capa_1" x="0px" y="0px" viewBox="0 0 512 512" style="enable-background:new 0 0 512 512;" xml:space="preserve" width="512px" height="512px">
<g>
	<g>
		<path d="M416,0c-42.72,0-80.768,28.704-92.512,69.856c-2.432,8.48,2.496,17.344,10.976,19.776    c8.544,2.304,17.344-2.528,19.776-11.008C362.08,51.168,387.488,32,416,32c35.296,0,64,28.704,64,64s-28.704,64-64,64    c-4.8,0-9.408-0.512-13.6-1.504c-8.64-1.984-17.248,3.328-19.232,11.904c-2.048,8.608,3.264,17.248,11.904,19.264    C401.664,191.2,408.704,192,416,192c52.928,0,96-43.072,96-96S468.928,0,416,0z" fill="#FFFFFF"/>
	</g>
</g>
<g>
	<g>
		<path d="M412.864,160.032C397.952,86.016,333.088,32,256,32c-64.032,0-121.504,38.112-146.688,96.032    C48.8,129.472,0,179.136,0,240c0,47.712,30.048,90.048,74.816,105.408c8.352,2.88,17.472-1.6,20.32-9.952    c2.848-8.384-1.6-17.472-9.952-20.32C53.376,304.224,32,274.016,32,240c0-44.096,35.904-80,80-80c1.28,0,3.392,0,4.128,0.16    c8.096,2.08,16.288-2.432,19.008-10.272C152.928,98.528,201.504,64,256,64c66.016,0,120.8,49.536,127.456,115.232    c0.416,4.448,2.72,8.512,6.304,11.2c3.584,2.656,8.16,3.68,12.544,2.912c4.192-0.8,8.992-1.344,13.696-1.344    c35.296,0,64,28.704,64,64c0,35.296-28.704,64-64,64H304c-8.832,0-16,7.168-16,16c0,8.832,7.168,16,16,16h112    c52.928,0,96-43.072,96-96C512,202.016,468.8,158.88,412.864,160.032z" fill="#FFFFFF"/>
	</g>
</g>
<g>
	<g>
		<path d="M192,240c-8.832,0-16,7.168-16,16v160c0,8.832,7.168,16,16,16c8.832,0,16-7.168,16-16V256    C208,247.168,200.832,240,192,240z" fill="#FFFFFF"/>
	</g>
</g>
<g>
	<g>
		<path d="M269.28,362.144l-138.56-80c-7.648-4.448-17.44-1.792-21.856,5.856s-1.792,17.44,5.856,21.856l138.56,80    c2.528,1.472,5.28,2.144,8,2.144c5.504,0,10.912-2.88,13.856-8C279.552,376.352,276.928,366.56,269.28,362.144z" fill="#FFFFFF"/>
	</g>
</g>
<g>
	<g>
		<path d="M275.136,288c-4.416-7.648-14.304-10.272-21.888-5.856l-138.56,80c-7.648,4.416-10.272,14.208-5.856,21.856    c2.976,5.12,8.352,8,13.888,8c2.72,0,5.472-0.672,8-2.144l138.56-80C276.96,305.44,279.584,295.648,275.136,288z" fill="#FFFFFF"/>
	</g>
</g>
<g>
	<g>
		<path d="M368,384c-8.832,0-16,7.168-16,16v96c0,8.832,7.168,16,16,16c8.832,0,16-7.168,16-16v-96C384,391.168,376.832,384,368,384    z" fill="#FFFFFF"/>
	</g>
</g>
<g>
	<g>
		<path d="M417.6,458.144l-83.136-48c-7.648-4.384-17.44-1.792-21.856,5.856c-4.448,7.648-1.824,17.44,5.824,21.856l83.136,48    c2.528,1.472,5.28,2.144,8,2.144c5.504,0,10.912-2.88,13.888-8C427.872,472.32,425.248,462.56,417.6,458.144z" fill="#FFFFFF"/>
	</g>
</g>
<g>
	<g>
		<path d="M423.424,416c-4.416-7.712-14.208-10.304-21.856-5.856l-83.136,48c-7.68,4.416-10.304,14.208-5.856,21.856    c2.944,5.12,8.352,8,13.856,8c2.72,0,5.472-0.672,8-2.144l83.136-48C425.248,433.44,427.872,423.648,423.424,416z" fill="#FFFFFF"/>
	</g>
</g>
<g>
</g>
<g>
</g>
<g>
</g>
<g>
</g>
<g>
</g>
<g>
</g>
<g>
</g>
<g>
</g>
<g>
</g>
<g>
</g>
<g>
</g>
<g>
</g>
<g>
</g>
<g>
</g>
<g>
</g>
</svg>
