<?xml version="1.0" encoding="iso-8859-1"?>
<!-- Generator: Adobe Illustrator 19.0.0, SVG Export Plug-In . SVG Version: 6.00 Build 0)  -->
<svg xmlns="http://www.w3.org/2000/svg" xmlns:xlink="http://www.w3.org/1999/xlink" version="1.1" id="Capa_1" x="0px" y="0px" viewBox="0 0 512 512" style="enable-background:new 0 0 512 512;" xml:space="preserve" width="512px" height="512px">
<g>
	<g>
		<path d="M224,344.448V64c0-35.296-28.704-64-64-64S96,28.704,96,64v280.448C75.552,362.688,64,388.352,64,416    c0,52.928,43.072,96,96,96s96-43.072,96-96C256,388.352,244.448,362.688,224,344.448z M160,480c-35.296,0-64-28.704-64-64    c0-20.288,9.344-38.944,25.632-51.232c4-3.008,6.368-7.744,6.368-12.768V64c0-17.632,14.368-32,32-32s32,14.368,32,32v288    c0,5.024,2.368,9.76,6.368,12.768C214.656,377.056,224,395.712,224,416C224,451.296,195.296,480,160,480z" fill="#FFFFFF"/>
	</g>
</g>
<g>
	<g>
		<path d="M208,160h-32c-8.832,0-16,7.168-16,16c0,8.832,7.168,16,16,16h32c8.832,0,16-7.168,16-16C224,167.168,216.832,160,208,160    z" fill="#FFFFFF"/>
	</g>
</g>
<g>
	<g>
		<path d="M208,256h-96c-8.832,0-16,7.168-16,16c0,8.832,7.168,16,16,16h96c8.832,0,16-7.168,16-16C224,263.168,216.832,256,208,256    z" fill="#FFFFFF"/>
	</g>
</g>
<g>
	<g>
		<path d="M432,192H304c-8.832,0-16,7.168-16,16c0,8.832,7.168,16,16,16h128c8.832,0,16-7.168,16-16    C448,199.168,440.832,192,432,192z" fill="#FFFFFF"/>
	</g>
</g>
<g>
</g>
<g>
</g>
<g>
</g>
<g>
</g>
<g>
</g>
<g>
</g>
<g>
</g>
<g>
</g>
<g>
</g>
<g>
</g>
<g>
</g>
<g>
</g>
<g>
</g>
<g>
</g>
<g>
</g>
</svg>
